<svg width="200" height="180" viewBox="0 0 200 180" fill="none" xmlns="http://www.w3.org/2000/svg">
<rect width="200" height="173" fill="#00D6BC"/>
<path d="M95.8978 64.8361C98.3399 62.7175 101.969 62.7177 104.41 64.837L119.632 78.0529L136.872 93.0119C138.294 94.2452 139.11 96.0353 139.11 97.9171V128.506C139.11 132.092 136.202 135 132.616 135H114.648V102.559C114.648 98.9725 111.74 96.0656 108.154 96.0656H92.1419C88.5557 96.0656 85.648 98.9725 85.6478 102.559V135H67.679C64.0928 135 61.1859 132.092 61.1859 128.506V97.9171C61.1859 96.0352 62.0018 94.2452 63.4232 93.0119L80.6624 78.0529L95.8978 64.8361ZM94.9574 38.7453C97.3951 36.6402 101.008 36.6393 103.446 38.7443L157.966 85.8214L155.07 88.3214C152.632 90.4258 149.021 90.4258 146.583 88.3214L99.2015 47.4171L53.0951 87.2316C50.6588 89.3354 47.0487 89.3372 44.6107 87.2355L41.7044 84.7296L94.9574 38.7453Z" fill="white"/>
</svg>
