<svg width="84" height="84" viewBox="0 0 84 84" fill="none" xmlns="http://www.w3.org/2000/svg">
<path d="M41.7705 9.54004C59.5704 9.5403 74 23.9705 74 41.7705C73.9997 59.5702 59.5702 73.9997 41.7705 74C23.9705 74 9.5403 59.5704 9.54004 41.7705C9.54004 23.9704 23.9704 9.54004 41.7705 9.54004ZM29.0059 34.752C28.673 34.2313 27.9099 34.1857 27.5234 34.6689L18.4082 46.0684C18.0831 46.4752 18.1835 47.066 18.6328 47.334C21.0898 48.7993 28.4804 53.0453 34.0215 54.5322C41.4383 56.5167 51.2009 54.579 52.3262 54.0127C53.4501 53.4466 52.7173 53.0412 52.3594 53.001C49.4643 52.6758 44.6404 51.2714 38.6699 46.2686C34.219 42.5412 30.482 37.0624 29.0059 34.752ZM45.3975 27.9414C45.473 27.3114 44.899 26.7811 44.2744 26.916L33.7988 29.1807C33.2735 29.2945 32.9638 29.8303 33.1445 30.333C33.9569 32.5941 36.1715 38.4032 38.6338 41.8477C42.0538 46.6247 48.8052 50.1972 49.7529 50.4043C50.6999 50.6109 50.465 50.0148 50.2725 49.8174C48.7151 48.2209 46.5466 45.0459 45.4775 39.168C44.7185 35.0014 45.1264 30.2022 45.3975 27.9414ZM51.0479 29.459C50.5416 29.2321 49.9454 29.4771 49.7793 29.9902C49.209 31.7531 48.0692 35.5873 47.9736 38.3516C47.8361 42.4217 50.1262 47.2164 50.5762 47.7266C51.0259 48.2362 51.1524 47.8087 51.1289 47.6191C50.9385 46.086 51.0901 43.4248 53.0498 39.7275C54.3271 37.3161 56.4015 35.0206 57.6152 33.7832C58.0707 33.3187 57.9317 32.5441 57.3301 32.2744L51.0479 29.459ZM59.8838 38.4141C59.6926 38.0563 59.2265 37.9387 58.8877 38.1719C57.9385 38.8254 56.1605 40.1202 55.1621 41.293C53.6156 43.1127 52.9081 46.0915 52.9268 46.4785C52.9454 46.8653 53.1594 46.7121 53.2178 46.6172C53.6904 45.8493 54.7296 44.6803 56.9688 43.6523C58.3218 43.0307 59.9499 42.6879 60.9795 42.5186C61.466 42.4382 61.7511 41.9166 61.5244 41.4912L59.8838 38.4141Z" fill="#00D6BC"/>
</svg>
