<svg width="84" height="84" viewBox="0 0 84 84" fill="none" xmlns="http://www.w3.org/2000/svg">
<circle cx="41.77" cy="41.77" r="41.77" fill="#00D6BC"/>
<path d="M55.5467 58.0739C54.1285 58.8007 41.8096 61.2893 32.4505 58.7412C25.4588 56.8322 16.1332 51.3811 13.033 49.4997C12.4659 49.1556 12.3393 48.3967 12.7498 47.8743L24.2511 33.2379C24.7388 32.6173 25.7014 32.6767 26.1213 33.3455C27.9839 36.312 32.6988 43.346 38.3149 48.1317C45.8486 54.5553 51.9356 56.3583 55.5886 56.7758C56.0402 56.8274 56.9648 57.3471 55.5467 58.0739Z" fill="white"/>
<path d="M52.2264 52.9757C51.0601 52.7182 42.7435 48.2659 38.531 42.3121C35.4983 38.0194 32.7712 30.7796 31.7707 27.9619C31.5481 27.3352 31.9297 26.667 32.5771 26.5254L45.4791 23.7036C46.2484 23.5354 46.9555 24.1965 46.8624 24.9817C46.5285 27.7991 46.0262 33.7797 46.9611 38.9722C48.2778 46.2976 50.9484 50.2543 52.8665 52.2438C53.1036 52.4898 53.3927 53.2332 52.2264 52.9757Z" fill="white"/>
<path d="M53.5436 49.5884C53.0101 48.9575 50.2942 43.0221 50.4574 37.984C50.5707 34.5625 51.9221 29.817 52.5986 27.635C52.7955 26.9997 53.5029 26.6959 54.1035 26.9768L61.5555 30.4622C62.2692 30.796 62.4335 31.7548 61.893 32.3297C60.4533 33.8613 57.9928 36.702 56.4778 39.6867C54.1532 44.2631 53.9739 47.5572 54.1997 49.4549C54.2276 49.6895 54.0771 50.2192 53.5436 49.5884Z" fill="white"/>
<path d="M56.6325 47.7253C56.6102 47.2464 57.4564 43.5601 59.3064 41.3082C60.5005 39.8569 62.6269 38.2551 63.7622 37.4464C64.1676 37.1577 64.7255 37.3031 64.954 37.7463L66.9162 41.5534C67.1876 42.08 66.8459 42.7262 66.2637 42.8254C65.0322 43.035 63.0851 43.459 61.4667 44.2283C58.7884 45.5004 57.5455 46.9469 56.9803 47.8972C56.9105 48.0147 56.6548 48.2041 56.6325 47.7253Z" fill="white"/>
</svg>
