<svg width="396" height="108" viewBox="0 0 396 108" fill="none" xmlns="http://www.w3.org/2000/svg">
<circle cx="54.23" cy="54.23" r="41.77" fill="#46536B"/>
<path d="M68.0066 70.5339C66.5885 71.2607 54.2695 73.7493 44.9105 71.2012C37.9187 69.2921 28.5932 63.841 25.4929 61.9597C24.9258 61.6156 24.7993 60.8566 25.2097 60.3343L36.711 45.6979C37.1988 45.0772 38.1613 45.1367 38.5813 45.8055C40.4438 48.772 45.1587 55.8059 50.7749 60.5916C58.3086 67.0152 64.3955 68.8183 68.0485 69.2357C68.5002 69.2873 69.4248 69.807 68.0066 70.5339Z" fill="white"/>
<path d="M64.6863 65.4357C63.52 65.1782 55.2035 60.7259 50.9909 54.7721C47.9583 50.4794 45.2311 43.2396 44.2306 40.4219C44.0081 39.7951 44.3896 39.1269 45.037 38.9854L57.9391 36.1636C58.7084 35.9953 59.4154 36.6565 59.3224 37.4416C58.9885 40.259 58.4862 46.2396 59.4211 51.4321C60.7378 58.7575 63.4084 62.7142 65.3264 64.7038C65.5635 64.9497 65.8526 65.6932 64.6863 65.4357Z" fill="white"/>
<path d="M66.0035 62.0483C65.47 61.4175 62.7541 55.4821 62.9173 50.444C63.0306 47.0224 64.382 42.277 65.0585 40.0949C65.2555 39.4596 65.9629 39.1559 66.5635 39.4368L74.0155 42.9221C74.7292 43.256 74.8934 44.2148 74.353 44.7897C72.9133 46.3213 70.4527 49.162 68.9378 52.1467C66.6132 56.7231 66.4339 60.0172 66.6597 61.9149C66.6876 62.1495 66.5371 62.6791 66.0035 62.0483Z" fill="white"/>
<path d="M69.0925 60.1852C69.0701 59.7064 69.9163 56.02 71.7664 53.7681C72.9604 52.3169 75.0868 50.715 76.2222 49.9063C76.6275 49.6176 77.1855 49.763 77.4139 50.2062L79.3762 54.0133C79.6476 54.54 79.3058 55.1862 78.7237 55.2853C77.4922 55.495 75.545 55.919 73.9267 56.6882C71.2483 57.9603 70.0055 59.4069 69.4403 60.3572C69.3704 60.4747 69.1148 60.664 69.0925 60.1852Z" fill="white"/>
<path d="M140.88 74V32H147.24L162.54 56.9L159.48 56.84L174.96 32H180.96V74H174.48V56.78C174.48 53.18 174.56 49.94 174.72 47.06C174.92 44.18 175.24 41.32 175.68 38.48L176.52 40.7L162.78 61.94H158.82L145.5 40.94L146.16 38.48C146.6 41.16 146.9 43.92 147.06 46.76C147.26 49.56 147.36 52.9 147.36 56.78V74H140.88ZM205.335 74.6C202.255 74.6 199.495 73.9 197.055 72.5C194.655 71.06 192.755 69.12 191.355 66.68C189.955 64.2 189.255 61.38 189.255 58.22C189.255 55.06 189.955 52.26 191.355 49.82C192.755 47.34 194.655 45.4 197.055 44C199.495 42.56 202.255 41.84 205.335 41.84C208.375 41.84 211.095 42.56 213.495 44C215.935 45.4 217.855 47.34 219.255 49.82C220.655 52.26 221.355 55.06 221.355 58.22C221.355 61.38 220.655 64.2 219.255 66.68C217.855 69.12 215.935 71.06 213.495 72.5C211.095 73.9 208.375 74.6 205.335 74.6ZM205.335 68.96C207.215 68.96 208.895 68.5 210.375 67.58C211.855 66.62 213.015 65.34 213.855 63.74C214.695 62.1 215.095 60.26 215.055 58.22C215.095 56.14 214.695 54.3 213.855 52.7C213.015 51.06 211.855 49.78 210.375 48.86C208.895 47.94 207.215 47.48 205.335 47.48C203.455 47.48 201.755 47.96 200.235 48.92C198.755 49.84 197.595 51.12 196.755 52.76C195.915 54.36 195.515 56.18 195.555 58.22C195.515 60.26 195.915 62.1 196.755 63.74C197.595 65.34 198.755 66.62 200.235 67.58C201.755 68.5 203.455 68.96 205.335 68.96ZM228.09 74V42.5H234.27V48.98L233.19 49.7C233.59 48.3 234.37 47.02 235.53 45.86C236.69 44.66 238.07 43.7 239.67 42.98C241.27 42.22 242.91 41.84 244.59 41.84C246.99 41.84 248.99 42.32 250.59 43.28C252.19 44.2 253.39 45.62 254.19 47.54C254.99 49.46 255.39 51.88 255.39 54.8V74H249.21V55.22C249.21 53.42 248.97 51.94 248.49 50.78C248.01 49.58 247.27 48.72 246.27 48.2C245.27 47.64 244.03 47.4 242.55 47.48C241.35 47.48 240.25 47.68 239.25 48.08C238.25 48.44 237.37 48.96 236.61 49.64C235.89 50.32 235.31 51.12 234.87 52.04C234.47 52.92 234.27 53.88 234.27 54.92V74H231.21C230.69 74 230.17 74 229.65 74C229.13 74 228.61 74 228.09 74ZM264.793 74V42.5H270.973V74H264.793ZM267.793 35.54C266.473 35.54 265.453 35.2 264.733 34.52C264.013 33.84 263.653 32.88 263.653 31.64C263.653 30.48 264.013 29.54 264.733 28.82C265.493 28.1 266.513 27.74 267.793 27.74C269.113 27.74 270.133 28.08 270.853 28.76C271.573 29.44 271.933 30.4 271.933 31.64C271.933 32.8 271.553 33.74 270.793 34.46C270.073 35.18 269.073 35.54 267.793 35.54ZM284.372 74V34.46H290.552V74H284.372ZM277.832 48.5V42.5H297.872V48.5H277.832ZM317.367 74.6C314.287 74.6 311.527 73.9 309.087 72.5C306.687 71.06 304.787 69.12 303.387 66.68C301.987 64.2 301.287 61.38 301.287 58.22C301.287 55.06 301.987 52.26 303.387 49.82C304.787 47.34 306.687 45.4 309.087 44C311.527 42.56 314.287 41.84 317.367 41.84C320.407 41.84 323.127 42.56 325.527 44C327.967 45.4 329.887 47.34 331.287 49.82C332.687 52.26 333.387 55.06 333.387 58.22C333.387 61.38 332.687 64.2 331.287 66.68C329.887 69.12 327.967 71.06 325.527 72.5C323.127 73.9 320.407 74.6 317.367 74.6ZM317.367 68.96C319.247 68.96 320.927 68.5 322.407 67.58C323.887 66.62 325.047 65.34 325.887 63.74C326.727 62.1 327.127 60.26 327.087 58.22C327.127 56.14 326.727 54.3 325.887 52.7C325.047 51.06 323.887 49.78 322.407 48.86C320.927 47.94 319.247 47.48 317.367 47.48C315.487 47.48 313.787 47.96 312.267 48.92C310.787 49.84 309.627 51.12 308.787 52.76C307.947 54.36 307.547 56.18 307.587 58.22C307.547 60.26 307.947 62.1 308.787 63.74C309.627 65.34 310.787 66.62 312.267 67.58C313.787 68.5 315.487 68.96 317.367 68.96ZM340.121 74V42.5H346.361V52.4L345.761 50C346.201 48.48 346.941 47.1 347.981 45.86C349.061 44.62 350.281 43.64 351.641 42.92C353.041 42.2 354.481 41.84 355.961 41.84C356.641 41.84 357.281 41.9 357.881 42.02C358.521 42.14 359.021 42.28 359.381 42.44L357.761 49.16C357.281 48.96 356.741 48.8 356.141 48.68C355.581 48.52 355.021 48.44 354.461 48.44C353.381 48.44 352.341 48.66 351.341 49.1C350.381 49.5 349.521 50.08 348.761 50.84C348.041 51.56 347.461 52.42 347.021 53.42C346.581 54.38 346.361 55.44 346.361 56.6V74H340.121Z" fill="#536073"/>
</svg>
